<?xml version="1.0" standalone="no"?>
<!DOCTYPE svg PUBLIC "-//W3C//DTD SVG 1.1//EN" "http://www.w3.org/Graphics/SVG/1.1/DTD/svg11.dtd" >
<svg>
<metadata>
Created by FontForge 20110222 at Fri Apr 29 13:30:47 2011
 By www-data
Copyright (c) 2011 by Gesine Todt. All rights reserved.
</metadata>
<defs>
<font id="Amaranth" horiz-adv-x="500" >
  <font-face 
    font-family="Amaranth"
    font-weight="400"
    font-stretch="normal"
    units-per-em="1000"
    panose-1="2 0 5 3 0 0 0 2 0 4"
    ascent="800"
    descent="-200"
    x-height="498"
    cap-height="677"
    bbox="-67 -223 872 930"
    underline-thickness="50"
    underline-position="-50"
    stemh="89"
    stemv="115"
    unicode-range="U+0020-20AC"
  />
    <missing-glyph />
    <glyph glyph-name="space" unicode=" " horiz-adv-x="255" 
 />
    <glyph glyph-name="exclam" unicode="!" horiz-adv-x="319" 
d="M176 141c47 0 73 -31 73 -75c0 -43 -25 -77 -76 -77c-47 0 -73 34 -73 74c0 44 25 78 76 78zM126 220v457h129l-29 -457h-100z" />
    <glyph glyph-name="quotedbl" unicode="&#x22;" horiz-adv-x="367" 
d="M50 677h97l-8 -243h-81zM220 677h97l-8 -243h-81z" />
    <glyph glyph-name="numbersign" unicode="#" horiz-adv-x="616" 
d="M405 593h80l-18 -136h99l-10 -79h-99l-20 -156h106l-10 -79h-106l-18 -143h-80l18 143h-123l-18 -143h-80l18 143h-104l10 79h104l20 156h-111l10 79h111l18 136h80l-18 -136h123zM254 378l-20 -156h123l20 156h-123z" />
    <glyph glyph-name="dollar" unicode="$" horiz-adv-x="520" 
d="M223 694h83v-77c70 -8 130 -36 146 -46l-41 -82c-15 7 -31 14 -47 20c-27 11 -61 21 -89 21c-45 0 -86 -15 -86 -58c0 -53 38 -77 115 -106c99 -40 156 -81 156 -174c0 -79 -54 -156 -154 -177v-98h-83v94c-84 8 -151 44 -173 58l43 89c19 -11 38 -20 56 -28
c31 -15 68 -28 95 -28c66 0 99 27 99 82c0 54 -36 67 -95 88c-111 42 -177 90 -177 187c0 76 61 140 152 156v79z" />
    <glyph glyph-name="percent" unicode="%" horiz-adv-x="843" 
d="M238 0l274 587h95l-274 -587h-95zM194 591c104 0 148 -66 148 -174c0 -101 -50 -180 -154 -180s-148 66 -148 173c0 104 50 181 154 181zM188 520c-40 0 -49 -44 -49 -104s9 -108 55 -108c40 0 49 44 49 104s-9 108 -55 108zM655 351c104 0 148 -66 148 -174
c0 -101 -50 -180 -154 -180s-148 66 -148 173c0 104 50 181 154 181zM649 280c-40 0 -49 -44 -49 -104s9 -108 55 -108c40 0 49 44 49 104s-9 108 -55 108z" />
    <glyph glyph-name="ampersand" unicode="&#x26;" horiz-adv-x="575" 
d="M443 523l-58 -64l-26 21c-16 11 -35 21 -58 21c-41 0 -61 -21 -61 -53c0 -65 70 -139 173 -231c16 27 29 52 40 79l85 -35c-15 -33 -32 -70 -55 -105l97 -84l-58 -77c-35 28 -68 55 -101 83c-51 -49 -116 -84 -204 -84c-92 0 -182 63 -182 175c0 99 63 161 109 194
c-15 31 -23 61 -23 90c0 72 48 142 171 142c68 0 116 -27 151 -72zM349 138c-60 51 -115 100 -155 151c-19 -20 -40 -54 -40 -105c0 -56 35 -91 96 -91c35 0 68 17 99 45z" />
    <glyph glyph-name="quoteright" unicode="&#x2019;" horiz-adv-x="231" 
d="M77 706c3 3 8 6 15 9c11 4 27 9 51 9c47 0 68 -31 68 -75c0 -108 -66 -177 -138 -214l-43 59c107 81 53 162 47 212z" />
    <glyph glyph-name="parenleft" unicode="(" horiz-adv-x="383" 
d="M70 269c0 258 138 406 211 457l62 -69c-59 -48 -159 -174 -159 -389c0 -216 100 -342 159 -390l-62 -69c-73 51 -211 198 -211 460z" />
    <glyph glyph-name="parenright" unicode=")" horiz-adv-x="383" 
d="M343 269c0 -262 -138 -409 -211 -460l-62 69c59 48 159 174 159 390c0 215 -100 341 -159 389l62 69c73 -51 211 -199 211 -457z" />
    <glyph glyph-name="asterisk" unicode="*" horiz-adv-x="451" 
d="M174 677h97l-10 -114l110 46l30 -92l-113 -27l76 -87l-79 -57l-61 99l-61 -100l-79 57l77 89l-111 26l30 92l103 -43z" />
    <glyph glyph-name="plus" unicode="+" horiz-adv-x="512" 
d="M60 257v89h148v152h95v-152h149v-89h-149v-158h-95v158h-148z" />
    <glyph glyph-name="comma" unicode="," horiz-adv-x="281" 
d="M87 123c3 3 8 6 15 9c11 4 27 9 51 9c47 0 68 -31 68 -75c0 -108 -66 -177 -138 -214l-43 59c107 81 53 162 47 212z" />
    <glyph glyph-name="hyphen" unicode="-" horiz-adv-x="383" 
d="M50 277v84h283v-84h-283z" />
    <glyph glyph-name="period" unicode="." horiz-adv-x="269" 
d="M136 141c47 0 73 -31 73 -75c0 -43 -25 -77 -76 -77c-47 0 -73 34 -73 74c0 44 25 78 76 78z" />
    <glyph glyph-name="slash" unicode="/" horiz-adv-x="418" 
d="M-10 -126l318 855h120l-318 -855h-120z" />
    <glyph glyph-name="zero" unicode="0" horiz-adv-x="564" 
d="M289 642c165 0 230 -114 230 -315c0 -199 -70 -333 -243 -333c-165 0 -231 114 -231 317c0 200 72 331 244 331zM276 554c-83 0 -106 -91 -106 -232c0 -132 18 -240 118 -240c84 0 105 93 105 233c0 133 -17 239 -117 239z" />
    <glyph glyph-name="one" unicode="1" horiz-adv-x="386" 
d="M200 637h86v-637h-115v503c-41 -39 -87 -70 -126 -82l-45 83c65 30 125 53 200 133z" />
    <glyph glyph-name="two" unicode="2" horiz-adv-x="492" 
d="M78 506l-39 80c54 24 139 56 218 56c95 0 178 -41 178 -173c0 -87 -63 -165 -162 -277l-91 -100h270v-92h-417v92c23 26 115 121 137 146c105 121 137 165 137 232c0 51 -31 84 -76 84c-52 0 -92 -21 -155 -48z" />
    <glyph glyph-name="three" unicode="3" 
d="M247 642c117 0 179 -56 179 -139c0 -79 -61 -117 -102 -136c84 -25 131 -96 131 -169c0 -101 -56 -204 -232 -204c-60 0 -127 24 -188 52l34 84c61 -27 103 -48 150 -48c60 0 118 37 118 114c0 60 -42 102 -89 102c-45 0 -92 -12 -97 -12l-32 79l3 -1c-1 0 -2 1 -3 1
c100 32 186 54 186 126c0 41 -27 63 -74 63c-50 0 -82 -16 -144 -40l-39 79c66 29 118 49 199 49z" />
    <glyph glyph-name="four" unicode="4" horiz-adv-x="525" 
d="M414 485v-222h96l-16 -88h-80v-175h-115v175h-279v65l181 397h119l-175 -374h154v202z" />
    <glyph glyph-name="five" unicode="5" horiz-adv-x="509" 
d="M279 404c112 0 182 -89 182 -198c0 -110 -60 -220 -228 -212c-69 4 -127 24 -188 52l34 84c61 -27 103 -48 151 -48c76 0 106 41 106 125c0 69 -39 107 -99 107c-78 0 -117 -26 -124 -28l-48 36l34 315h329l-16 -92h-212l-21 -159c11 7 39 18 100 18z" />
    <glyph glyph-name="six" unicode="6" horiz-adv-x="525" 
d="M444 613l-31 -80c-31 11 -66 18 -101 18c-113 0 -141 -92 -144 -201c24 27 66 63 134 63c117 0 188 -76 188 -208c0 -120 -78 -211 -222 -211c-167 0 -223 135 -223 324c0 171 76 322 271 322c49 0 93 -12 128 -27zM279 326c-53 0 -103 -38 -111 -46
c5 -137 34 -200 109 -200c68 0 96 51 96 124c0 69 -25 122 -94 122z" />
    <glyph glyph-name="seven" unicode="7" horiz-adv-x="458" 
d="M5 637h418v-73l-201 -564h-125l194 545h-270z" />
    <glyph glyph-name="eight" unicode="8" horiz-adv-x="525" 
d="M262 -6c-115 0 -212 53 -212 165c0 81 61 131 123 169c-60 35 -106 88 -106 160c0 85 88 154 200 154c104 0 187 -65 187 -150c0 -69 -48 -120 -103 -157c64 -35 124 -98 124 -170c0 -104 -93 -171 -213 -171zM170 163c0 -49 35 -89 99 -89c51 0 83 40 83 87
c0 49 -49 96 -88 125c-51 -29 -94 -66 -94 -123zM334 491c0 41 -27 71 -72 71s-76 -24 -76 -69c0 -56 40 -92 77 -113c39 23 71 51 71 111z" />
    <glyph glyph-name="nine" unicode="9" horiz-adv-x="524" 
d="M81 21l31 80c31 -11 66 -18 101 -18c114 0 140 91 143 200c-21 -27 -66 -62 -133 -62c-117 0 -188 76 -188 208c0 120 78 211 222 211c167 0 223 -135 223 -324c0 -171 -76 -322 -271 -322c-49 0 -93 12 -128 27zM246 308c52 0 102 37 110 45c-4 137 -33 201 -108 201
c-68 0 -96 -51 -96 -124c0 -68 25 -122 94 -122z" />
    <glyph glyph-name="colon" unicode=":" horiz-adv-x="289" 
d="M166 141c47 0 73 -31 73 -75c0 -43 -25 -77 -76 -77c-47 0 -73 34 -73 74c0 44 25 78 76 78zM166 510c47 0 73 -31 73 -75c0 -43 -25 -77 -76 -77c-47 0 -73 34 -73 74c0 44 25 78 76 78z" />
    <glyph glyph-name="semicolon" unicode=";" horiz-adv-x="290" 
d="M165 510c47 0 73 -31 73 -75c0 -43 -25 -77 -76 -77c-47 0 -73 34 -73 74c0 44 25 78 76 78zM106 123c3 3 8 6 15 9c11 4 27 9 51 9c47 0 68 -31 68 -75c0 -108 -66 -177 -138 -214l-43 59c107 81 53 162 47 212z" />
    <glyph glyph-name="less" unicode="&#x3c;" horiz-adv-x="455" 
d="M415 183l-40 -93l-345 168v84l339 165l40 -94l-192 -87c-21 -11 -45 -19 -62 -26l63 -26z" />
    <glyph glyph-name="equal" unicode="=" horiz-adv-x="503" 
d="M70 347v89h363v-89h-363zM70 172v89h363v-89h-363z" />
    <glyph glyph-name="greater" unicode="&#x3e;" horiz-adv-x="455" 
d="M80 90l-40 93l197 91c20 9 44 19 63 26c-19 7 -41 15 -62 26l-192 87l40 94l339 -165v-84z" />
    <glyph glyph-name="question" unicode="?" horiz-adv-x="434" 
d="M219 687c117 0 190 -43 190 -150c0 -77 -53 -140 -102 -200c-37 -47 -69 -91 -84 -140l-85 23c0 140 142 223 142 303c0 48 -31 76 -76 76c-43 0 -67 -15 -125 -42l-39 80c55 25 111 50 179 50zM187 141c47 0 73 -31 73 -75c0 -43 -25 -77 -76 -77c-47 0 -73 34 -73 74
c0 44 25 78 76 78z" />
    <glyph glyph-name="at" unicode="@" horiz-adv-x="896" 
d="M627 430v-213c0 -76 6 -143 51 -143c44 0 77 85 82 170c11 201 -122 294 -279 294c-168 0 -340 -115 -340 -335c0 -144 54 -287 270 -287c39 0 83 8 116 19c19 5 38 12 56 19l28 -70c-19 -9 -40 -17 -62 -24c-37 -12 -87 -23 -138 -23c-179 0 -356 82 -356 362
c0 272 222 418 437 418c192 0 366 -118 353 -368c-8 -155 -91 -255 -175 -255c-73 0 -111 47 -128 115c-19 -76 -62 -115 -142 -115c-113 0 -166 88 -166 224c0 137 87 238 216 238c36 0 80 -6 115 -13c21 -4 41 -8 62 -13zM417 70c57 0 100 81 103 167v134
c-11 3 -40 10 -59 10c-79 0 -113 -64 -113 -154c0 -83 10 -157 69 -157z" />
    <glyph glyph-name="A" unicode="A" horiz-adv-x="606" 
d="M-5 0l260 677h96l260 -677h-128l-62 177h-243l-63 -177h-120zM210 266h180c-41 117 -73 221 -89 277c-19 -60 -50 -162 -91 -277z" />
    <glyph glyph-name="B" unicode="B" horiz-adv-x="565" 
d="M70 0v677h20c25 0 48 0 71 1c39 0 83 1 110 1c155 0 238 -64 238 -176c0 -65 -39 -119 -103 -151c80 -31 124 -89 124 -162c0 -115 -87 -191 -263 -191h-114c-21 0 -41 0 -60 1h-23zM264 304c-31 0 -55 0 -74 -1v-217h85c91 0 126 45 126 106c0 56 -31 112 -137 112z
M256 593c-28 0 -50 0 -66 -1v-203h76c83 0 116 43 116 100c0 52 -29 104 -126 104z" />
    <glyph glyph-name="C" unicode="C" horiz-adv-x="524" 
d="M504 614l-62 -74c-32 35 -65 53 -112 53c-113 0 -153 -111 -153 -252c0 -140 35 -254 163 -254c60 0 116 23 126 26l28 -85c-15 -7 -32 -12 -50 -17c-32 -9 -76 -17 -127 -17c-180 0 -270 116 -270 336c0 211 95 356 295 356c81 0 130 -35 162 -72z" />
    <glyph glyph-name="D" unicode="D" horiz-adv-x="643" 
d="M70 0v677h20c22 0 44 0 65 1c36 0 80 1 112 1c227 0 333 -115 333 -336c0 -223 -107 -345 -346 -345c-41 0 -80 0 -111 1c-17 0 -34 0 -50 1h-23zM253 589c-31 0 -50 -1 -63 -1v-499c15 -1 35 -1 78 -1c140 0 202 83 202 244c0 155 -59 257 -217 257z" />
    <glyph glyph-name="E" unicode="E" horiz-adv-x="513" 
d="M70 0v677h403v-91h-283v-188h233l-15 -91h-218v-216h298v-91h-418z" />
    <glyph glyph-name="F" unicode="F" horiz-adv-x="488" 
d="M70 0v677h403v-91h-283v-194h233l-15 -91h-218v-301h-120z" />
    <glyph glyph-name="G" unicode="G" horiz-adv-x="605" 
d="M447 15c2 19 3 35 3 50c0 7 0 11 -1 14c-31 -56 -91 -87 -168 -87c-168 0 -238 134 -238 337c0 208 94 357 296 357c89 0 150 -35 185 -72l-59 -76c-35 35 -88 55 -139 55c-114 0 -153 -114 -153 -254c0 -151 37 -253 131 -253c62 0 133 58 133 152v91h118v-302
c0 -162 -96 -210 -178 -250l-47 80c110 51 112 116 117 158z" />
    <glyph glyph-name="H" unicode="H" horiz-adv-x="658" 
d="M468 0v307h-278v-307h-120v677h120v-281h278v281h120v-677h-120z" />
    <glyph glyph-name="I" unicode="I" horiz-adv-x="260" 
d="M70 0v677h120v-677h-120z" />
    <glyph glyph-name="J" unicode="J" horiz-adv-x="260" 
d="M190 677v-651c0 -160 -96 -209 -178 -249l-47 80c107 54 105 114 105 157v663h120z" />
    <glyph glyph-name="K" unicode="K" horiz-adv-x="593" 
d="M70 0v677h120v-677h-120zM422 677h119c-43 -201 -103 -268 -187 -325l246 -352h-140l-257 366v7c123 45 183 151 219 304z" />
    <glyph glyph-name="L" unicode="L" horiz-adv-x="443" 
d="M70 0v677h120v-586h253v-91h-373z" />
    <glyph glyph-name="M" unicode="M" horiz-adv-x="813" 
d="M640 0l-10 255c-3 35 -4 104 -5 169c-24 -66 -52 -138 -63 -166l-111 -258h-85l-112 255c-13 29 -43 105 -67 172c0 -70 -4 -142 -4 -169l-10 -258h-113l40 679h94l171 -423l42 -104c13 35 27 72 42 104l170 420v3h94l40 -679h-113z" />
    <glyph glyph-name="N" unicode="N" horiz-adv-x="660" 
d="M473 326l-3 351h120v-678h-100l-227 354c-25 39 -57 92 -84 133c4 -43 8 -92 8 -135l3 -351h-120v679h94l234 -350c27 -39 56 -85 81 -124c-3 43 -6 90 -6 121z" />
    <glyph glyph-name="O" unicode="O" horiz-adv-x="669" 
d="M341 686c200 0 283 -131 283 -342c0 -208 -92 -350 -296 -350c-200 0 -283 124 -283 336c0 209 92 356 296 356zM327 593c-115 0 -152 -109 -152 -252c0 -136 31 -254 167 -254c115 0 152 105 152 247c0 135 -31 259 -167 259z" />
    <glyph glyph-name="P" unicode="P" horiz-adv-x="535" 
d="M70 0v677h20c25 0 48 0 71 1c39 0 83 1 110 1c163 0 239 -77 239 -204c0 -124 -86 -210 -251 -210h-69v-265h-120zM256 593c-28 0 -50 0 -66 -1v-238h76c83 0 116 50 116 117c0 61 -29 122 -126 122z" />
    <glyph glyph-name="Q" unicode="Q" horiz-adv-x="673" 
d="M616 -63l41 -85c-117 -80 -288 -119 -468 72l22 67c153 -32 286 95 286 341c0 135 -31 261 -167 261c-115 0 -161 -116 -161 -249c0 -122 24 -192 110 -211l-13 -86c-163 11 -223 156 -223 288c0 202 98 351 301 351c200 0 283 -132 283 -343c0 -246 -130 -399 -280 -426
c73 -51 151 -36 269 20z" />
    <glyph glyph-name="R" unicode="R" horiz-adv-x="575" 
d="M271 679c165 0 239 -68 239 -185c0 -79 -36 -141 -124 -168c76 -43 109 -149 187 -326h-131c-91 211 -125 293 -223 293h-29v-293h-120v677h20c25 0 48 0 71 1c39 0 83 1 110 1zM256 593h-66v-213h76c73 0 116 34 116 99c0 59 -29 114 -126 114z" />
    <glyph glyph-name="S" unicode="S" horiz-adv-x="508" 
d="M265 686c94 0 176 -40 197 -53l-49 -87c-15 8 -31 16 -48 23c-28 11 -62 23 -93 23c-48 0 -89 -22 -89 -69c0 -60 37 -94 120 -126c107 -43 170 -89 170 -198c0 -103 -80 -205 -226 -205c-103 0 -191 50 -217 65l42 93c21 -12 41 -23 62 -32c35 -16 76 -32 105 -32
c71 0 104 37 104 98c0 60 -39 83 -100 107c-119 50 -191 96 -191 213c0 98 89 180 213 180z" />
    <glyph glyph-name="T" unicode="T" horiz-adv-x="493" 
d="M10 586v91h473l-15 -91h-168v-586h-120v586h-170z" />
    <glyph glyph-name="U" unicode="U" horiz-adv-x="636" 
d="M60 677h119v-418c0 -124 56 -172 145 -172s132 64 132 172v418h120v-427c0 -139 -67 -256 -265 -256c-189 0 -251 117 -251 256v427z" />
    <glyph glyph-name="V" unicode="V" horiz-adv-x="581" 
d="M591 677l-253 -677h-95l-253 677h129l84 -243c43 -124 73 -222 89 -273c15 51 45 146 89 271l87 245h123z" />
    <glyph glyph-name="W" unicode="W" horiz-adv-x="870" 
d="M595 0l-133 408c-11 29 -17 57 -24 82c-7 -25 -13 -51 -22 -82l-129 -408h-89l-188 677h120l88 -336c16 -59 26 -105 33 -144c9 37 22 84 40 142l105 338h90l105 -338c19 -60 32 -110 41 -149c5 39 14 88 31 149l87 338h122l-188 -677h-89z" />
    <glyph glyph-name="X" unicode="X" horiz-adv-x="584" 
d="M138 0h-138l210 355l-190 322h136l95 -171c11 -19 26 -48 41 -79c15 31 30 59 41 78l96 172h136l-191 -323l210 -354h-138l-112 200c-11 19 -27 50 -42 81c-16 -32 -31 -62 -42 -81z" />
    <glyph glyph-name="Y" unicode="Y" horiz-adv-x="544" 
d="M210 0v259l-210 418h130l142 -305l144 305h128l-214 -423v-254h-120z" />
    <glyph glyph-name="Z" unicode="Z" horiz-adv-x="529" 
d="M494 0h-454v72l293 514c-27 -3 -54 -3 -86 -3h-190l-16 94h441v-72l-288 -513c23 1 46 2 74 2h226v-94z" />
    <glyph glyph-name="bracketleft" unicode="[" horiz-adv-x="370" 
d="M80 720h230v-89h-120v-728h120v-89h-230v906z" />
    <glyph glyph-name="backslash" unicode="\" horiz-adv-x="418" 
d="M110 729l318 -855h-120l-318 855h120z" />
    <glyph glyph-name="bracketright" unicode="]" horiz-adv-x="370" 
d="M290 720v-906h-230v89h120v728h-120v89h230z" />
    <glyph glyph-name="asciicircum" unicode="^" horiz-adv-x="542" 
d="M154 296l-104 19l179 362h84l179 -362l-108 -13l-87 192c-11 20 -19 43 -26 62l-26 -63z" />
    <glyph glyph-name="underscore" unicode="_" 
d="M0 -163v84h500v-84h-500z" />
    <glyph glyph-name="quoteleft" unicode="&#x2018;" horiz-adv-x="231" 
d="M154 451c-3 -3 -8 -6 -15 -9c-11 -5 -28 -9 -51 -9c-47 0 -68 31 -68 75c0 108 66 177 138 214l43 -59c-109 -80 -52 -163 -47 -212z" />
    <glyph glyph-name="a" unicode="a" horiz-adv-x="536" 
d="M467 477v-236c0 -80 12 -133 24 -166c7 -20 16 -36 25 -47l-91 -36c-8 9 -16 19 -23 31c-12 20 -25 51 -28 91c-23 -80 -70 -120 -155 -120c-125 0 -184 98 -184 248c0 152 98 264 239 264c40 0 87 -8 126 -15c22 -4 44 -9 67 -14zM238 75c65 0 114 98 114 196v143
c-13 3 -45 11 -65 11c-99 0 -128 -73 -128 -173c0 -92 7 -177 79 -177z" />
    <glyph glyph-name="b" unicode="b" horiz-adv-x="532" 
d="M65 23v682l115 20v-304c24 55 65 85 133 85c125 0 184 -98 184 -248c0 -152 -98 -264 -239 -264c-40 0 -88 7 -127 14c-22 4 -44 9 -66 15zM294 425c-65 0 -114 -98 -114 -196v-144c12 -3 44 -10 65 -10c99 0 128 73 128 173c0 92 -7 177 -79 177z" />
    <glyph glyph-name="c" unicode="c" horiz-adv-x="410" 
d="M400 442l-65 -62c-20 23 -38 41 -71 41c-41 0 -105 -14 -105 -169c0 -156 63 -176 110 -176c19 0 42 5 62 10c12 3 24 6 35 10l28 -73c-11 -6 -24 -11 -39 -15c-25 -8 -59 -15 -102 -15c-154 0 -218 97 -218 244c0 176 100 273 229 273c63 0 105 -25 136 -68z" />
    <glyph glyph-name="d" unicode="d" horiz-adv-x="536" 
d="M516 28l-91 -36c-8 9 -16 19 -23 31c-12 20 -25 51 -28 91c-23 -80 -70 -120 -155 -120c-125 0 -184 98 -184 248c0 152 98 264 239 264c24 0 51 -3 78 -7v226l115 -20v-464c0 -80 12 -133 24 -166c7 -19 16 -35 25 -47zM238 76c65 0 114 96 114 195v143
c-13 3 -45 11 -65 11c-99 0 -128 -73 -128 -173c0 -92 7 -176 79 -176z" />
    <glyph glyph-name="e" unicode="e" horiz-adv-x="473" 
d="M35 237c0 179 105 273 241 273c119 0 167 -62 167 -142c0 -97 -110 -177 -286 -180c8 -61 32 -112 110 -112c29 0 65 8 93 17c17 5 33 11 49 18l30 -72c-17 -9 -36 -16 -56 -23c-35 -12 -81 -23 -132 -23c-155 0 -216 97 -216 244zM267 431c-88 0 -110 -89 -113 -170
c125 3 174 61 174 107c0 39 -25 63 -61 63z" />
    <glyph glyph-name="f" unicode="f" horiz-adv-x="353" 
d="M378 679l-50 -65c-4 4 -29 19 -48 19c-31 0 -99 -14 -67 -134v-1h124l-14 -82h-104v-391c0 -159 -92 -208 -172 -248l-47 77c99 51 104 118 104 160v402h-90v82h87c-1 4 -2 7 -2 11c-29 141 65 213 173 213c52 0 83 -19 106 -43z" />
    <glyph glyph-name="g" unicode="g" horiz-adv-x="531" 
d="M374 84c-3 4 -2 9 -5 14c-23 -68 -70 -104 -150 -104c-125 0 -184 98 -184 248c0 152 98 264 239 264c66 0 151 -19 180 -27l16 -2l-5 -274c-3 -79 31 -130 31 -210c0 -148 -90 -220 -226 -209c-43 3 -81 12 -110 23c-17 5 -33 11 -48 18l28 88c55 -21 87 -34 130 -38
c115 -11 141 94 104 209zM238 75c63 0 111 93 114 188v151c-13 3 -45 11 -65 11c-99 0 -128 -73 -128 -173c0 -92 7 -177 79 -177z" />
    <glyph glyph-name="h" unicode="h" horiz-adv-x="540" 
d="M180 725v-290c39 51 95 71 154 71c45 0 79 -12 104 -37c28 -28 42 -73 42 -135v-334h-115v326c0 56 -18 90 -65 90c-56 0 -115 -58 -120 -149v-267h-115v705z" />
    <glyph glyph-name="i" unicode="i" horiz-adv-x="257" 
d="M170 -4c-71 0 -109 46 -109 113v389h115v-378c0 -31 9 -39 28 -39c5 0 12 0 17 1c3 0 6 0 9 1l12 -73c-5 -3 -11 -5 -18 -7c-12 -4 -30 -7 -54 -7zM120 721c43 0 67 -29 67 -69s-23 -71 -70 -71c-43 0 -67 31 -67 68c0 41 23 72 70 72z" />
    <glyph glyph-name="j" unicode="j" horiz-adv-x="245" 
d="M65 14v484h115v-473c0 -159 -92 -208 -172 -248l-47 77c99 51 104 118 104 160zM124 721c43 0 67 -29 67 -69s-23 -71 -70 -71c-43 0 -67 31 -67 68c0 41 23 72 70 72z" />
    <glyph glyph-name="k" unicode="k" horiz-adv-x="521" 
d="M227 249l-1 10c21 5 137 36 137 107c0 39 -25 59 -61 59c-100 0 -119 -95 -122 -104v-321h-115v705l115 20v-284c21 27 65 66 153 66c83 0 147 -49 147 -132c0 -60 -29 -97 -60 -120c-17 -13 -37 -24 -59 -32l140 -223h-131z" />
    <glyph glyph-name="l" unicode="l" horiz-adv-x="292" 
d="M171 -4c-76 0 -111 46 -111 113v596l115 21v-606c0 -31 12 -41 35 -41c13 0 26 1 37 4l16 4l14 -73l-29 -9c-19 -5 -45 -9 -77 -9z" />
    <glyph glyph-name="m" unicode="m" horiz-adv-x="809" 
d="M189 244v-244h-115v252c0 80 -13 133 -25 166c-7 19 -15 35 -24 47l91 36c7 -7 13 -16 20 -27c11 -19 22 -45 29 -80c33 79 100 112 167 112c68 0 102 -37 121 -92c36 65 96 92 159 92c43 0 75 -12 98 -37c26 -27 39 -72 39 -135v-334h-115v326c0 56 -14 90 -57 90
c-48 0 -105 -55 -108 -147v-269h-115v326c0 56 -14 90 -57 90c-52 0 -113 -67 -108 -172z" />
    <glyph glyph-name="n" unicode="n" horiz-adv-x="549" 
d="M189 244v-244h-115v252c0 80 -13 133 -25 166c-7 19 -15 35 -24 47l91 36c7 -7 13 -16 20 -27c11 -19 22 -45 29 -80c35 79 106 112 178 112c45 0 79 -12 104 -37c28 -28 42 -73 42 -135v-334h-115v323c0 56 -18 92 -65 92c-59 0 -125 -66 -120 -171z" />
    <glyph glyph-name="o" unicode="o" horiz-adv-x="517" 
d="M263 510c153 0 219 -96 219 -255c0 -149 -75 -265 -228 -265s-219 97 -219 254c0 151 75 266 228 266zM253 425c-76 0 -94 -75 -94 -171c0 -99 20 -179 105 -179c76 0 94 74 94 170c0 100 -20 180 -105 180z" />
    <glyph glyph-name="p" unicode="p" horiz-adv-x="541" 
d="M25 465l91 36c8 -8 15 -18 22 -30c11 -20 23 -48 28 -87c23 80 69 122 156 122c125 0 184 -98 184 -248c0 -152 -98 -264 -239 -264c-25 0 -51 3 -78 6v-201l-115 -20v473c0 80 -13 133 -25 166c-7 19 -15 35 -24 47zM303 424c-64 0 -111 -92 -114 -188v-151
c12 -3 44 -10 65 -10c99 0 128 73 128 173c0 92 -7 176 -79 176z" />
    <glyph glyph-name="q" unicode="q" horiz-adv-x="532" 
d="M467 477v-699l-115 21v262c-27 -45 -72 -67 -133 -67c-125 0 -184 98 -184 248c0 152 98 264 239 264c40 0 87 -8 126 -15c22 -4 44 -9 67 -14zM238 76c65 0 114 96 114 195v143c-13 3 -45 11 -65 11c-99 0 -128 -73 -128 -173c0 -92 7 -176 79 -176z" />
    <glyph glyph-name="r" unicode="r" horiz-adv-x="370" 
d="M289 393c-48 0 -93 -45 -100 -117v-276h-115v252c0 80 -13 133 -25 166c-7 19 -15 35 -24 47l91 36l19 -27c11 -19 22 -42 29 -77c27 76 80 108 144 108c15 0 31 -3 43 -6l19 -5l-32 -112c-4 1 -8 3 -13 5c-8 3 -20 6 -36 6z" />
    <glyph glyph-name="s" unicode="s" horiz-adv-x="412" 
d="M212 510c40 0 79 -9 108 -20c17 -6 33 -12 48 -19l-35 -79c-13 6 -26 11 -39 16c-23 8 -53 17 -78 17c-31 0 -56 -15 -56 -44c0 -37 28 -67 83 -88c83 -32 134 -68 134 -154c0 -76 -63 -149 -175 -149c-44 0 -89 12 -122 24c-20 7 -39 15 -56 24l37 85
c15 -9 31 -17 46 -24c27 -12 58 -24 85 -24c47 0 68 20 68 51c0 35 -25 63 -73 82c-103 39 -144 83 -144 162c0 76 73 140 169 140z" />
    <glyph glyph-name="t" unicode="t" horiz-adv-x="362" 
d="M10 416v82h90l20 117l95 21v-138h123l-14 -82h-109v-294c0 -35 22 -41 45 -41c19 0 38 3 53 7c9 2 17 4 25 7l19 -76c-11 -5 -23 -9 -36 -12c-23 -7 -55 -11 -92 -11c-75 0 -129 30 -129 113v307h-90z" />
    <glyph glyph-name="u" unicode="u" horiz-adv-x="549" 
d="M360 254v244h115v-257c0 -80 12 -133 24 -166c7 -20 16 -36 25 -47l-91 -36c-7 7 -14 17 -21 28c-11 19 -24 46 -29 82c-36 -77 -105 -108 -177 -108c-45 0 -79 12 -104 37c-28 28 -42 73 -42 135v332h115v-329c0 -56 18 -90 65 -90c59 0 125 70 120 175z" />
    <glyph glyph-name="v" unicode="v" horiz-adv-x="524" 
d="M352 498h117c1 -10 3 -21 5 -32c3 -19 5 -46 5 -71c0 -295 -86 -400 -273 -400c-45 0 -79 12 -104 37c-28 28 -42 73 -42 134v332h115v-329c0 -56 18 -93 65 -93c95 0 123 155 123 307c0 28 -3 55 -6 78c-2 13 -4 25 -5 37z" />
    <glyph glyph-name="w" unicode="w" horiz-adv-x="771" 
d="M599 498h117c1 -10 3 -21 5 -32c3 -19 5 -44 5 -71c0 -295 -61 -402 -245 -402c-45 0 -79 12 -104 37c-13 13 -22 27 -29 43c-24 -56 -61 -80 -142 -80c-45 0 -79 12 -104 37c-28 28 -42 72 -42 133v335h115v-326c0 -56 18 -96 65 -96c61 0 95 55 95 194v228h115
c-1 -50 -1 -96 -1 -139c0 -74 -1 -154 -1 -187c0 -56 20 -96 67 -96c92 0 95 155 95 307c0 31 -3 60 -6 81c-2 12 -4 23 -5 34z" />
    <glyph glyph-name="x" unicode="x" horiz-adv-x="481" 
d="M124 0h-129l167 264l-146 234h133l63 -103c8 -13 23 -44 36 -72c15 24 31 48 43 71c16 29 27 55 34 74l11 30h119l-12 -34c-9 -23 -22 -53 -42 -89c-23 -40 -54 -81 -82 -112l162 -263h-131l-74 129c-11 19 -25 45 -38 72c-15 -27 -28 -54 -39 -73z" />
    <glyph glyph-name="y" unicode="y" horiz-adv-x="538" 
d="M381 84l-3 8c-37 -71 -104 -98 -172 -98c-45 0 -79 12 -104 37c-28 28 -42 73 -42 135v332h115v-328c0 -56 18 -90 65 -90c51 0 111 55 119 140v278h118l-5 -295c-3 -79 31 -130 31 -210c0 -148 -90 -220 -226 -209c-43 3 -81 12 -110 23c-17 5 -33 11 -48 18l29 87
c55 -21 87 -33 130 -37c114 -11 140 94 103 209z" />
    <glyph glyph-name="z" unicode="z" horiz-adv-x="418" 
d="M393 0h-363v69l220 348c-34 -2 -67 -3 -100 -3h-98l-14 84h346v-69l-216 -348c29 2 58 3 88 3h137v-84z" />
    <glyph glyph-name="braceleft" unicode="{" horiz-adv-x="365" 
d="M116 -77c0 72 14 142 14 202c0 52 -23 88 -70 99v83c47 11 70 47 70 99c0 60 -14 130 -14 202c0 89 82 139 229 104l-23 -85c-76 27 -91 -12 -91 -35c0 -60 13 -120 13 -172c0 -59 -11 -112 -83 -155c72 -43 83 -96 83 -154c0 -52 -13 -112 -13 -172c0 -23 15 -62 91 -35
l23 -85c-146 -37 -229 17 -229 104z" />
    <glyph glyph-name="bar" unicode="|" horiz-adv-x="310" 
d="M100 729h110v-855h-110v855z" />
    <glyph glyph-name="braceright" unicode="}" horiz-adv-x="365" 
d="M249 -77c0 -87 -83 -141 -229 -104l23 85c76 -27 91 12 91 35c0 60 -13 120 -13 172c0 57 11 112 82 154c-71 42 -82 97 -82 155c0 52 13 112 13 172c0 23 -15 62 -91 35l-23 85c146 34 229 -15 229 -104c0 -72 -14 -142 -14 -202c0 -52 23 -88 70 -99v-83
c-47 -11 -70 -47 -70 -99c0 -60 14 -130 14 -202z" />
    <glyph glyph-name="asciitilde" unicode="~" horiz-adv-x="517" 
d="M92 261l-42 47c8 15 18 29 30 41c20 21 51 42 94 42c78 0 107 -60 168 -60c41 0 54 14 83 46l42 -47c-9 -16 -19 -30 -31 -42c-21 -21 -51 -41 -94 -41c-77 0 -106 60 -168 60c-40 0 -53 -14 -82 -46z" />
    <glyph glyph-name="exclamdown" unicode="&#xa1;" horiz-adv-x="319" 
d="M140 354c-51 0 -76 34 -76 78c0 40 26 74 73 74c51 0 76 -34 76 -77c0 -44 -26 -75 -73 -75zM90 -182v457h100l29 -457h-129z" />
    <glyph glyph-name="cent" unicode="&#xa2;" horiz-adv-x="460" 
d="M242 581h79v-87c44 -8 80 -31 104 -64l-65 -62c-12 12 -24 24 -39 32v-314c16 3 34 6 47 10c7 3 15 5 23 7l28 -73c-8 -4 -17 -8 -27 -11c-17 -7 -42 -13 -71 -16v-118h-79v116c-132 12 -187 100 -187 236c0 155 79 242 187 258v86zM176 252c0 -107 31 -148 66 -161v313
c-35 -11 -66 -44 -66 -152z" />
    <glyph glyph-name="sterling" unicode="&#xa3;" horiz-adv-x="563" 
d="M60 251v91h74l7 87c8 124 91 207 214 207c93 0 137 -32 158 -45l-49 -88c-8 7 -17 13 -28 19c-19 11 -43 20 -74 20c-48 0 -93 -23 -101 -106l-10 -94h182l-15 -91h-177l-4 -39c-7 -60 -24 -96 -41 -123c24 4 48 6 72 6c39 0 74 -6 113 -6c20 0 43 4 62 11
c11 3 21 7 32 12l35 -85c-13 -7 -26 -12 -40 -17c-24 -8 -56 -16 -88 -16c-60 0 -104 12 -149 12c-39 0 -73 -1 -98 -4l-40 -4l-28 68c9 6 18 14 25 25c12 18 25 44 29 85l6 75h-67z" />
    <glyph glyph-name="yen" unicode="&#xa5;" horiz-adv-x="593" 
d="M114 252v89h82l-166 296h130l136 -274l139 274h128l-168 -296h82v-89h-123v-61h123v-89h-123v-102h-120v102h-120v89h120v61h-120z" />
    <glyph glyph-name="section" unicode="&#xa7;" horiz-adv-x="559" 
d="M255 -216c-33 0 -65 7 -88 14c-14 4 -27 9 -39 14l35 79c9 -5 18 -8 28 -11c17 -7 39 -11 60 -11c37 0 56 17 56 52c0 109 -257 152 -257 324c0 87 64 130 109 148c-24 31 -39 63 -39 102c0 83 66 148 169 148c33 0 64 -7 88 -14c13 -4 26 -9 39 -14l-35 -79
c-9 4 -18 8 -28 11c-17 5 -39 11 -60 11c-37 0 -56 -17 -56 -52c0 -109 257 -152 257 -324c0 -87 -66 -130 -109 -149c23 -29 39 -62 39 -101c0 -83 -66 -148 -169 -148zM377 169c0 59 -83 107 -155 163c-24 -9 -55 -29 -55 -74c0 -60 83 -106 154 -164c25 9 56 30 56 75z
" />
    <glyph glyph-name="currency" unicode="&#xa4;" horiz-adv-x="589" 
d="M99 -6l-69 69l86 77c-30 39 -45 87 -45 143s16 104 47 143l-86 78l69 69l83 -93c32 17 68 27 111 27c41 0 78 -9 111 -26l83 92l69 -69l-87 -78c31 -39 47 -87 47 -143s-16 -103 -47 -142l88 -78l-69 -69l-84 93c-33 -17 -70 -27 -113 -27c-41 0 -78 9 -111 26zM157 288
c0 -84 56 -152 136 -152c83 0 139 61 139 144c0 84 -56 152 -139 152c-80 0 -136 -60 -136 -144z" />
    <glyph glyph-name="quotesingle" unicode="'" horiz-adv-x="197" 
d="M50 677h97l-8 -243h-81z" />
    <glyph glyph-name="quotedblleft" unicode="&#x201c;" horiz-adv-x="431" 
d="M154 451c-3 -3 -8 -6 -15 -9c-11 -5 -28 -9 -51 -9c-47 0 -68 31 -68 75c0 108 66 177 138 214l43 -59c-109 -80 -52 -163 -47 -212zM354 451c-3 -3 -8 -6 -15 -9c-11 -5 -28 -9 -51 -9c-47 0 -68 31 -68 75c0 108 66 177 138 214l43 -59c-109 -80 -52 -163 -47 -212z
" />
    <glyph glyph-name="guillemotleft" unicode="&#xab;" horiz-adv-x="568" 
d="M313 82l-48 -55c-27 23 -53 47 -79 72c-44 43 -97 97 -136 146c39 49 92 103 136 146c26 25 52 49 79 72l48 -55l-130 -163zM533 82l-48 -55c-27 23 -53 47 -79 72c-44 43 -97 97 -136 146c39 49 92 103 136 146c26 25 52 49 79 72l48 -55l-130 -163z" />
    <glyph glyph-name="guilsinglleft" unicode="&#x2039;" horiz-adv-x="348" 
d="M313 82l-48 -55c-27 23 -53 47 -79 72c-44 43 -97 97 -136 146c39 49 92 103 136 146c26 25 52 49 79 72l48 -55l-130 -163z" />
    <glyph glyph-name="guilsinglright" unicode="&#x203a;" horiz-adv-x="348" 
d="M35 408l48 55c27 -23 53 -47 79 -72c44 -43 97 -97 136 -146c-39 -49 -92 -103 -136 -146c-26 -25 -52 -49 -79 -72l-48 55l130 163z" />
    <glyph glyph-name="endash" unicode="&#x2013;" 
d="M0 277v84h500v-84h-500z" />
    <glyph glyph-name="periodcentered" unicode="&#xb7;" horiz-adv-x="249" 
d="M126 393c47 0 73 -31 73 -75c0 -43 -25 -77 -76 -77c-47 0 -73 34 -73 74c0 44 25 78 76 78z" />
    <glyph glyph-name="paragraph" unicode="&#xb6;" horiz-adv-x="578" 
d="M508 677v-651c0 -160 -96 -209 -178 -249l-47 80c107 54 105 114 105 157v663h120zM290 679v-414c-153 0 -230 80 -230 208c0 129 79 206 230 206z" />
    <glyph glyph-name="bullet" unicode="&#x2022;" horiz-adv-x="314" 
d="M50 316c0 65 42 107 107 107s107 -42 107 -107s-42 -107 -107 -107s-107 42 -107 107z" />
    <glyph glyph-name="quotesinglbase" unicode="&#x201a;" horiz-adv-x="231" 
d="M77 123c3 3 8 6 15 9c11 4 27 9 51 9c47 0 68 -31 68 -75c0 -108 -66 -177 -138 -214l-43 59c107 81 53 162 47 212z" />
    <glyph glyph-name="quotedblbase" unicode="&#x201e;" horiz-adv-x="431" 
d="M77 123c3 3 8 6 15 9c11 4 27 9 51 9c47 0 68 -31 68 -75c0 -108 -66 -177 -138 -214l-43 59c107 81 53 162 47 212zM277 123c3 3 8 6 15 9c11 4 27 9 51 9c47 0 68 -31 68 -75c0 -108 -66 -177 -138 -214l-43 59c107 81 53 162 47 212z" />
    <glyph glyph-name="quotedblright" unicode="&#x201d;" horiz-adv-x="431" 
d="M77 709c3 3 8 6 15 9c11 4 27 9 51 9c47 0 68 -31 68 -75c0 -108 -66 -177 -138 -214l-43 59c107 81 53 162 47 212zM277 709c3 3 8 6 15 9c11 4 27 9 51 9c47 0 68 -31 68 -75c0 -108 -66 -177 -138 -214l-43 59c107 81 53 162 47 212z" />
    <glyph glyph-name="guillemotright" unicode="&#xbb;" horiz-adv-x="568" 
d="M255 408l48 55c27 -23 53 -47 79 -72c44 -43 97 -97 136 -146c-39 -49 -92 -103 -136 -146c-26 -25 -52 -49 -79 -72l-48 55l130 163zM35 408l48 55c27 -23 53 -47 79 -72c44 -43 97 -97 136 -146c-39 -49 -92 -103 -136 -146c-26 -25 -52 -49 -79 -72l-48 55l130 163z
" />
    <glyph glyph-name="questiondown" unicode="&#xbf;" horiz-adv-x="434" 
d="M215 -192c-117 0 -190 43 -190 150c0 79 54 138 102 200c37 47 69 91 84 140l85 -23c0 -140 -142 -223 -142 -303c0 -48 31 -76 76 -76c43 0 67 15 125 42l39 -80c-55 -25 -111 -50 -179 -50zM247 354c-47 0 -73 31 -73 75c0 43 25 77 76 77c47 0 73 -34 73 -74
c0 -44 -25 -78 -76 -78z" />
    <glyph glyph-name="grave" unicode="`" 
d="M373 591l-49 -52c-23 15 -46 31 -69 48c-40 31 -90 73 -129 122l77 72z" />
    <glyph glyph-name="acute" unicode="&#xb4;" 
d="M176 539l-49 52l170 190l77 -72c-40 -49 -89 -91 -129 -122c-23 -17 -46 -33 -69 -48z" />
    <glyph glyph-name="circumflex" unicode="&#x2c6;" 
d="M106 539l-44 54l188 188l188 -188l-44 -54c-13 7 -28 16 -44 27c-27 19 -63 44 -100 76c-39 -33 -74 -57 -101 -76c-16 -11 -30 -20 -43 -27z" />
    <glyph glyph-name="tilde" unicode="&#x2dc;" 
d="M93 589v75c7 4 15 8 23 11c15 7 34 12 57 12c49 0 104 -20 153 -20c23 0 42 3 57 7c8 2 16 4 23 7v-75c-7 -5 -15 -9 -23 -12c-15 -7 -34 -11 -57 -11c-49 0 -104 20 -153 20c-23 0 -42 -4 -57 -7c-8 -3 -16 -5 -23 -7z" />
    <glyph glyph-name="macron" unicode="&#xaf;" 
d="M89 599v84h323v-84h-323z" />
    <glyph glyph-name="dieresis" unicode="&#xa8;" 
d="M151 696c39 0 61 -27 61 -63c0 -37 -21 -65 -64 -65c-39 0 -61 27 -61 62c0 39 21 66 64 66zM351 696c39 0 61 -27 61 -63c0 -37 -21 -65 -64 -65c-39 0 -61 27 -61 62c0 39 21 66 64 66z" />
    <glyph glyph-name="cedilla" unicode="&#xb8;" 
d="M208 3h66l-11 -50c52 -4 90 -30 90 -79c0 -72 -62 -93 -118 -93c-33 0 -64 7 -87 18l16 54c15 -5 41 -13 64 -13c36 0 50 11 50 31c0 31 -53 44 -92 44z" />
    <glyph glyph-name="emdash" unicode="&#x2014;" horiz-adv-x="698" 
d="M0 277v84h698v-84h-698z" />
    <glyph glyph-name="AE" unicode="&#xc6;" horiz-adv-x="877" 
d="M-5 0l410 677h432v-91h-283v-188h233l-15 -91h-218v-216h298v-91h-416v177h-201l-101 -177h-139zM298 287l-12 -21h150v288c-35 -70 -87 -179 -138 -267z" />
    <glyph glyph-name="ordfeminine" unicode="&#xaa;" horiz-adv-x="401" 
d="M338 667v-162c0 -52 8 -89 16 -112c5 -13 10 -24 17 -33l-67 -26c-5 4 -10 9 -15 16c-8 11 -17 26 -24 46c-17 -41 -50 -61 -98 -61c-91 0 -132 68 -132 172s67 179 167 179c27 0 61 -5 88 -10zM178 400c39 0 69 67 69 139v78c-11 3 -26 6 -37 6c-60 0 -77 -46 -77 -110
c0 -57 5 -113 45 -113z" />
    <glyph glyph-name="Oslash" unicode="&#xd8;" horiz-adv-x="669" 
d="M341 686c27 0 51 -2 72 -7l26 63l100 -40l-26 -65c77 -56 111 -157 111 -293c0 -208 -92 -350 -296 -350c-27 0 -51 2 -74 6l-25 -63l-99 40l25 63c-77 55 -110 153 -110 290c0 209 92 356 296 356zM494 334c0 71 -6 135 -30 182l-172 -424c15 -3 31 -5 50 -5
c115 0 152 105 152 247zM327 593c-115 0 -152 -109 -152 -252c0 -71 6 -132 29 -179l172 425c-14 4 -30 6 -49 6z" />
    <glyph glyph-name="OE" unicode="&#x152;" horiz-adv-x="855" 
d="M830 0h-418c-29 -3 -59 -6 -84 -6c-200 0 -283 124 -283 336c0 209 92 356 296 356c36 0 63 -4 82 -9h392v-91h-283v-188h233l-15 -91h-218v-216h298v-91zM342 87c19 0 45 3 70 6v487c-19 7 -46 13 -85 13c-115 0 -152 -109 -152 -252c0 -136 31 -254 167 -254z" />
    <glyph glyph-name="ordmasculine" unicode="&#xba;" horiz-adv-x="410" 
d="M208 686c111 0 157 -66 157 -174c0 -101 -54 -180 -163 -180c-111 0 -157 65 -157 172c0 104 53 182 163 182zM201 619c-47 0 -58 -45 -58 -108c0 -61 12 -112 66 -112c47 0 58 45 58 108c0 61 -12 112 -66 112z" />
    <glyph glyph-name="ae" unicode="&#xe6;" horiz-adv-x="760" 
d="M274 506c72 0 131 -20 164 -35c38 26 83 39 135 39c119 0 167 -62 167 -142c0 -97 -110 -177 -286 -180c8 -61 32 -112 110 -112c29 0 65 8 93 17c17 5 33 11 49 18l30 -72c-17 -9 -36 -16 -56 -23c-35 -12 -81 -23 -132 -23c-92 0 -151 33 -184 93
c-25 -61 -70 -92 -145 -92c-125 0 -184 98 -184 248c0 152 98 264 239 264zM332 237c0 68 14 122 41 165c-24 13 -51 23 -86 23c-99 0 -128 -73 -128 -173c0 -92 7 -177 79 -177c45 0 80 38 99 94c-4 21 -5 44 -5 68zM564 431c-88 0 -110 -89 -113 -170
c125 3 174 61 174 107c0 39 -25 63 -61 63z" />
    <glyph glyph-name="oslash" unicode="&#xf8;" horiz-adv-x="517" 
d="M263 510c27 0 49 -3 70 -8l26 52l78 -36l-27 -56c49 -43 72 -114 72 -207c0 -149 -75 -265 -228 -265c-25 0 -48 3 -71 8l-25 -52l-78 35l27 56c-49 43 -72 114 -72 207c0 151 75 266 228 266zM253 427c-76 0 -100 -77 -100 -173c0 -47 0 -81 7 -109l135 277
c-13 3 -27 5 -42 5zM364 245c0 44 0 81 -7 109l-135 -277c11 -3 25 -4 42 -4c76 0 100 77 100 172z" />
    <glyph glyph-name="oe" unicode="&#x153;" horiz-adv-x="799" 
d="M263 510c76 0 130 -30 165 -77c43 49 103 77 174 77c119 0 167 -62 167 -142c0 -97 -110 -177 -286 -180c8 -61 32 -112 110 -112c29 0 65 8 93 17c17 5 33 11 49 18l30 -72c-17 -9 -36 -16 -56 -23c-35 -12 -81 -23 -132 -23c-76 0 -128 27 -163 70
c-37 -44 -89 -73 -160 -73c-153 0 -219 97 -219 254c0 151 75 266 228 266zM253 425c-76 0 -94 -75 -94 -171c0 -99 20 -179 105 -179c76 0 94 74 94 170c0 100 -20 180 -105 180zM593 431c-88 0 -110 -89 -113 -170c125 3 174 61 174 107c0 39 -25 63 -61 63z" />
    <glyph glyph-name="germandbls" unicode="&#xdf;" horiz-adv-x="579" 
d="M210 486v-461c0 -159 -92 -208 -172 -248l-43 69c100 51 100 126 100 168v465c0 110 43 224 188 243c156 19 224 -56 224 -137c0 -115 -115 -125 -115 -183c0 -91 157 -87 157 -250c0 -94 -74 -159 -185 -159c-32 0 -64 9 -88 18c-14 5 -27 12 -39 19l34 76
c9 -5 18 -10 27 -13c16 -7 35 -13 51 -13c52 0 83 20 83 64c0 93 -148 82 -148 238c0 100 108 123 108 193c0 49 -47 64 -92 61c-70 -8 -90 -73 -90 -150z" />
    <glyph glyph-name="logicalnot" unicode="&#xac;" horiz-adv-x="511" 
d="M50 307v89h411v-214h-87v125h-324z" />
    <glyph glyph-name="Eth" unicode="&#xd0;" horiz-adv-x="643" 
d="M0 303v89h70v285h20c22 0 44 0 65 1c36 0 80 1 112 1c227 0 333 -115 333 -336c0 -223 -107 -345 -346 -345c-41 0 -80 0 -111 1c-17 0 -34 0 -50 1h-23v303h-70zM253 589c-31 0 -50 -1 -63 -1v-196h178v-89h-178v-214c15 -1 35 -1 78 -1c140 0 202 83 202 244
c0 155 -59 257 -217 257z" />
    <glyph glyph-name="onehalf" unicode="&#xbd;" horiz-adv-x="727" 
d="M139 0l274 587h95l-274 -587h-95zM569 350c68 0 111 -29 111 -94c0 -52 -35 -97 -88 -152c-9 -9 -23 -21 -40 -33h135v-71h-241v71c3 1 39 31 74 67c48 53 68 78 68 109c0 23 -9 34 -27 34c-19 0 -40 -9 -56 -17c-9 -5 -19 -10 -28 -16l-32 63c39 21 77 39 124 39z
M131 586h61v-346h-84v256c-21 -21 -44 -36 -68 -47l-35 64c15 5 30 12 45 19c25 12 56 31 81 54z" />
    <glyph glyph-name="plusminus" unicode="&#xb1;" horiz-adv-x="513" 
d="M61 257v89h148v152h95v-152h149v-89h-149v-136h148v-89h-392v89h149v136h-148z" />
    <glyph glyph-name="Thorn" unicode="&#xde;" horiz-adv-x="537" 
d="M70 0v677h120v-122c31 1 60 1 81 1c165 0 241 -75 241 -204c0 -127 -85 -210 -253 -210h-69v-142h-120zM256 470c-28 0 -50 0 -66 -1v-238h76c83 0 116 50 116 117c0 61 -29 122 -126 122z" />
    <glyph glyph-name="onequarter" unicode="&#xbc;" horiz-adv-x="713" 
d="M139 0l274 587h95l-274 -587h-95zM649 267v-112h49l-10 -63h-39v-92h-84v92h-157v40l90 218h83l-83 -195h67v92zM131 586h61v-351h-84v261c-21 -21 -44 -36 -68 -47l-35 64c15 5 30 12 45 19c25 12 56 31 81 54z" />
    <glyph glyph-name="divide" unicode="&#xf7;" horiz-adv-x="511" 
d="M255 196c37 0 58 -25 58 -60s-21 -62 -61 -62c-37 0 -58 27 -58 59c0 35 21 63 61 63zM255 525c37 0 58 -25 58 -60s-21 -62 -61 -62c-37 0 -58 27 -58 59c0 36 21 63 61 63zM60 257v89h391v-89h-391z" />
    <glyph glyph-name="brokenbar" unicode="&#xa6;" horiz-adv-x="310" 
d="M100 729h110v-376h-110v376zM100 248h110v-374h-110v374z" />
    <glyph glyph-name="degree" unicode="&#xb0;" horiz-adv-x="310" 
d="M40 604c0 68 48 117 116 117s114 -49 114 -117s-48 -117 -116 -117s-114 49 -114 117zM104 605c0 -35 19 -60 51 -60c33 0 52 22 52 59c0 35 -19 59 -52 59c-32 0 -51 -21 -51 -58z" />
    <glyph glyph-name="thorn" unicode="&#xfe;" horiz-adv-x="532" 
d="M180 725v-287c26 45 70 68 133 68c125 0 184 -98 184 -248c0 -152 -98 -264 -239 -264c-25 0 -51 3 -78 6v-201l-115 -20v926zM294 424c-64 0 -111 -92 -114 -188v-151c12 -3 44 -10 65 -10c99 0 128 73 128 173c0 92 -7 176 -79 176z" />
    <glyph glyph-name="threequarters" unicode="&#xbe;" horiz-adv-x="788" 
d="M189 0l274 587h95l-274 -587h-95zM701 258v-112h49l-10 -63h-39v-83h-84v83h-157v40l90 218h83l-83 -195h67v92zM153 686c68 0 105 -34 105 -83c0 -39 -24 -60 -45 -73c39 -16 60 -47 60 -84c0 -59 -33 -117 -133 -117c-35 0 -78 14 -115 34l26 62l28 -14
c16 -7 37 -13 58 -13c24 0 48 14 48 47c0 24 -12 43 -36 43c-17 0 -30 -2 -39 -3l-15 -3l-21 52c37 11 94 15 94 57c0 15 -9 26 -24 26c-19 0 -40 -6 -81 -25l-30 64c41 19 75 30 120 30z" />
    <glyph glyph-name="registered" unicode="&#xae;" horiz-adv-x="584" 
d="M60 454c0 136 98 232 234 232s230 -96 230 -232s-99 -232 -234 -232c-136 0 -230 96 -230 232zM125 457c0 -99 69 -178 165 -178c98 0 167 70 167 170c0 99 -67 178 -167 178c-96 0 -165 -70 -165 -170zM284 581c64 0 92 -26 92 -71c0 -25 -15 -44 -39 -59
c21 -7 30 -33 58 -106l-50 -18c-33 82 -38 103 -78 106h-5v-108h-53v255h34c15 0 30 1 41 1zM277 549h-15v-85c3 0 16 1 23 2c31 7 36 15 36 40c0 21 -9 43 -44 43z" />
    <glyph glyph-name="eth" unicode="&#xf0;" horiz-adv-x="517" 
d="M482 250c0 -150 -75 -260 -228 -260s-219 104 -219 249c0 139 75 246 218 246c40 0 71 -13 94 -29c-13 37 -30 69 -47 98l-112 -31l-20 78l75 16l-54 42l58 71c39 -23 73 -52 104 -87l121 32l20 -77l-93 -20c56 -91 83 -203 83 -328zM253 404c-76 0 -94 -68 -94 -156
c0 -90 20 -173 105 -173c76 0 94 78 94 165c0 91 -20 164 -105 164z" />
    <glyph glyph-name="multiply" unicode="&#xd7;" horiz-adv-x="516" 
d="M67 432l61 63l128 -129l131 131l66 -67l-130 -130l133 -133l-61 -63l-134 134l-135 -135l-66 67l134 134z" />
    <glyph glyph-name="copyright" unicode="&#xa9;" horiz-adv-x="782" 
d="M45 340c0 203 146 346 349 346s343 -143 343 -346s-146 -346 -350 -346c-203 0 -342 143 -342 346zM131 346c0 -156 107 -278 259 -278c155 0 261 110 261 265c0 156 -106 279 -260 279c-153 0 -260 -110 -260 -266zM513 506l-49 -54c-4 3 -9 6 -15 9
c-11 5 -24 10 -39 10c-52 0 -68 -58 -68 -127c0 -72 22 -127 74 -127c35 0 62 10 67 13l22 -67c-9 -4 -18 -7 -29 -10c-19 -5 -44 -10 -73 -10c-104 0 -157 67 -157 195c0 123 55 207 172 207c49 0 78 -20 95 -39z" />
    <glyph glyph-name="Aacute" unicode="&#xc1;" horiz-adv-x="606" 
d="M-5 0l260 677h96l260 -677h-128l-62 177h-243l-63 -177h-120zM210 266h180c-41 117 -73 221 -89 277c-19 -60 -50 -162 -91 -277zM241 718l-29 59l226 152l54 -82c-47 -43 -109 -76 -160 -97c-30 -13 -60 -23 -91 -32z" />
    <glyph glyph-name="Acircumflex" unicode="&#xc2;" horiz-adv-x="606" 
d="M-5 0l260 677h96l260 -677h-128l-62 177h-243l-63 -177h-120zM210 266h180c-41 117 -73 221 -89 277c-19 -60 -50 -162 -91 -277zM147 718l-44 54l198 158l198 -158l-44 -54c-15 7 -31 14 -48 23c-29 15 -67 38 -106 67c-40 -29 -78 -52 -107 -67c-17 -9 -33 -16 -47 -23
z" />
    <glyph glyph-name="Adieresis" unicode="&#xc4;" horiz-adv-x="606" 
d="M-5 0l260 677h96l260 -677h-128l-62 177h-243l-63 -177h-120zM210 266h180c-41 117 -73 221 -89 277c-19 -60 -50 -162 -91 -277zM204 875c39 0 61 -27 61 -63c0 -37 -21 -65 -64 -65c-39 0 -61 27 -61 62c0 39 21 66 64 66zM404 875c39 0 61 -27 61 -63
c0 -37 -21 -65 -64 -65c-39 0 -61 27 -61 62c0 39 21 66 64 66z" />
    <glyph glyph-name="Agrave" unicode="&#xc0;" horiz-adv-x="606" 
d="M-5 0l260 677h96l260 -677h-128l-62 177h-243l-63 -177h-120zM210 266h180c-41 117 -73 221 -89 277c-19 -60 -50 -162 -91 -277zM387 777l-29 -59c-31 9 -61 19 -91 32c-51 21 -113 54 -160 97l54 82z" />
    <glyph glyph-name="Aring" unicode="&#xc5;" horiz-adv-x="606" 
d="M203 727c0 59 42 101 101 101c57 0 98 -42 98 -101c0 -34 -15 -63 -39 -81l248 -646h-128l-62 177h-243l-63 -177h-120l247 644c-24 18 -39 48 -39 83zM210 266h180c-41 117 -73 221 -89 277c-19 -60 -50 -162 -91 -277zM259 728c0 -27 12 -47 33 -51h20
c22 4 34 22 34 50c0 31 -16 50 -44 50c-29 0 -43 -16 -43 -49z" />
    <glyph glyph-name="Atilde" unicode="&#xc3;" horiz-adv-x="606" 
d="M-5 0l260 677h96l260 -677h-128l-62 177h-243l-63 -177h-120zM210 266h180c-41 117 -73 221 -89 277c-19 -60 -50 -162 -91 -277zM137 760v75c7 4 15 8 23 11c15 7 34 12 57 12c49 0 104 -20 153 -20c23 0 42 3 57 7c8 2 16 4 23 7v-75c-7 -5 -15 -9 -23 -12
c-15 -7 -34 -11 -57 -11c-49 0 -104 20 -153 20c-23 0 -42 -4 -57 -7c-8 -3 -16 -5 -23 -7z" />
    <glyph glyph-name="Ccedilla" unicode="&#xc7;" horiz-adv-x="524" 
d="M504 614l-62 -74c-32 35 -65 53 -112 53c-113 0 -153 -111 -153 -252c0 -140 35 -254 163 -254c60 0 116 23 126 26l28 -85c-13 -5 -26 -10 -41 -14c-27 -8 -60 -16 -103 -19l-9 -42c52 -4 90 -30 90 -79c0 -72 -62 -93 -118 -93c-33 0 -64 7 -87 18l16 54
c15 -5 41 -13 64 -13c36 0 50 11 50 31c0 31 -53 44 -92 44l20 81c-157 13 -237 129 -237 334c0 211 95 356 295 356c81 0 130 -35 162 -72z" />
    <glyph glyph-name="Eacute" unicode="&#xc9;" horiz-adv-x="513" 
d="M70 0v677h403v-91h-283v-188h233l-15 -91h-218v-216h298v-91h-418zM224 718l-29 59l226 152l54 -82c-47 -43 -109 -76 -160 -97c-30 -13 -60 -23 -91 -32z" />
    <glyph glyph-name="Ecircumflex" unicode="&#xca;" horiz-adv-x="513" 
d="M70 0v677h403v-91h-283v-188h233l-15 -91h-218v-216h298v-91h-418zM130 718l-44 54l198 158l198 -158l-44 -54c-15 7 -31 14 -48 23c-29 15 -67 38 -106 67c-40 -29 -78 -52 -107 -67c-17 -9 -33 -16 -47 -23z" />
    <glyph glyph-name="Edieresis" unicode="&#xcb;" horiz-adv-x="513" 
d="M70 0v677h403v-91h-283v-188h233l-15 -91h-218v-216h298v-91h-418zM158 875c39 0 61 -27 61 -63c0 -37 -21 -65 -64 -65c-39 0 -61 27 -61 62c0 39 21 66 64 66zM358 875c39 0 61 -27 61 -63c0 -37 -21 -65 -64 -65c-39 0 -61 27 -61 62c0 39 21 66 64 66z" />
    <glyph glyph-name="Egrave" unicode="&#xc8;" horiz-adv-x="513" 
d="M70 0v677h403v-91h-283v-188h233l-15 -91h-218v-216h298v-91h-418zM370 777l-29 -59c-31 9 -61 19 -91 32c-51 21 -113 54 -160 97l54 82z" />
    <glyph glyph-name="Iacute" unicode="&#xcd;" horiz-adv-x="260" 
d="M70 0v677h120v-677h-120zM71 718l-29 59l226 152l54 -82c-47 -43 -109 -76 -160 -97c-30 -13 -60 -23 -91 -32z" />
    <glyph glyph-name="Icircumflex" unicode="&#xce;" horiz-adv-x="260" 
d="M70 0v677h120v-677h-120zM-23 718l-44 54l198 158l198 -158l-44 -54c-15 7 -31 14 -48 23c-29 15 -67 38 -106 67c-40 -29 -78 -52 -107 -67c-17 -9 -33 -16 -47 -23z" />
    <glyph glyph-name="Idieresis" unicode="&#xcf;" horiz-adv-x="260" 
d="M70 0v677h120v-677h-120zM32 875c39 0 61 -27 61 -63c0 -37 -21 -65 -64 -65c-39 0 -61 27 -61 62c0 39 21 66 64 66zM232 875c39 0 61 -27 61 -63c0 -37 -21 -65 -64 -65c-39 0 -61 27 -61 62c0 39 21 66 64 66z" />
    <glyph glyph-name="Igrave" unicode="&#xcc;" horiz-adv-x="260" 
d="M70 0v677h120v-677h-120zM217 777l-29 -59c-31 9 -61 19 -91 32c-51 21 -113 54 -160 97l54 82z" />
    <glyph glyph-name="Ntilde" unicode="&#xd1;" horiz-adv-x="660" 
d="M473 326l-3 351h120v-678h-100l-227 354c-25 39 -57 92 -84 133c4 -43 8 -92 8 -135l3 -351h-120v679h94l234 -350c27 -39 56 -85 81 -124c-3 43 -6 90 -6 121zM173 768v75c7 4 15 8 23 11c15 7 34 12 57 12c49 0 104 -20 153 -20c23 0 42 3 57 7c8 2 16 4 23 7v-75
c-7 -5 -15 -9 -23 -12c-15 -7 -34 -11 -57 -11c-49 0 -104 20 -153 20c-23 0 -42 -4 -57 -7c-8 -3 -16 -5 -23 -7z" />
    <glyph glyph-name="Oacute" unicode="&#xd3;" horiz-adv-x="669" 
d="M341 686c200 0 283 -131 283 -342c0 -208 -92 -350 -296 -350c-200 0 -283 124 -283 336c0 209 92 356 296 356zM327 593c-115 0 -152 -109 -152 -252c0 -136 31 -254 167 -254c115 0 152 105 152 247c0 135 -31 259 -167 259zM273 718l-29 59l226 152l54 -82
c-47 -43 -109 -76 -160 -97c-30 -13 -60 -23 -91 -32z" />
    <glyph glyph-name="Ocircumflex" unicode="&#xd4;" horiz-adv-x="669" 
d="M341 686c200 0 283 -131 283 -342c0 -208 -92 -350 -296 -350c-200 0 -283 124 -283 336c0 209 92 356 296 356zM327 593c-115 0 -152 -109 -152 -252c0 -136 31 -254 167 -254c115 0 152 105 152 247c0 135 -31 259 -167 259zM179 718l-44 54l198 158l198 -158l-44 -54
c-15 7 -31 14 -48 23c-29 15 -67 38 -106 67c-40 -29 -78 -52 -107 -67c-17 -9 -33 -16 -47 -23z" />
    <glyph glyph-name="Odieresis" unicode="&#xd6;" horiz-adv-x="669" 
d="M341 686c200 0 283 -131 283 -342c0 -208 -92 -350 -296 -350c-200 0 -283 124 -283 336c0 209 92 356 296 356zM327 593c-115 0 -152 -109 -152 -252c0 -136 31 -254 167 -254c115 0 152 105 152 247c0 135 -31 259 -167 259zM236 875c39 0 61 -27 61 -63
c0 -37 -21 -65 -64 -65c-39 0 -61 27 -61 62c0 39 21 66 64 66zM436 875c39 0 61 -27 61 -63c0 -37 -21 -65 -64 -65c-39 0 -61 27 -61 62c0 39 21 66 64 66z" />
    <glyph glyph-name="Ograve" unicode="&#xd2;" horiz-adv-x="669" 
d="M341 686c200 0 283 -131 283 -342c0 -208 -92 -350 -296 -350c-200 0 -283 124 -283 336c0 209 92 356 296 356zM327 593c-115 0 -152 -109 -152 -252c0 -136 31 -254 167 -254c115 0 152 105 152 247c0 135 -31 259 -167 259zM419 777l-29 -59c-31 9 -61 19 -91 32
c-51 21 -113 54 -160 97l54 82z" />
    <glyph glyph-name="Otilde" unicode="&#xd5;" horiz-adv-x="669" 
d="M341 686c200 0 283 -131 283 -342c0 -208 -92 -350 -296 -350c-200 0 -283 124 -283 336c0 209 92 356 296 356zM327 593c-115 0 -152 -109 -152 -252c0 -136 31 -254 167 -254c115 0 152 105 152 247c0 135 -31 259 -167 259zM169 760v75c7 4 15 8 23 11
c15 7 34 12 57 12c49 0 104 -20 153 -20c23 0 42 3 57 7c8 2 16 4 23 7v-75c-7 -5 -15 -9 -23 -12c-15 -7 -34 -11 -57 -11c-49 0 -104 20 -153 20c-23 0 -42 -4 -57 -7c-8 -3 -16 -5 -23 -7z" />
    <glyph glyph-name="Uacute" unicode="&#xda;" horiz-adv-x="636" 
d="M60 677h119v-418c0 -124 56 -172 145 -172s132 64 132 172v418h120v-427c0 -139 -67 -256 -265 -256c-189 0 -251 117 -251 256v427zM259 718l-29 59l226 152l54 -82c-47 -43 -109 -76 -160 -97c-30 -13 -60 -23 -91 -32z" />
    <glyph glyph-name="Ucircumflex" unicode="&#xdb;" horiz-adv-x="636" 
d="M60 677h119v-418c0 -124 56 -172 145 -172s132 64 132 172v418h120v-427c0 -139 -67 -256 -265 -256c-189 0 -251 117 -251 256v427zM165 718l-44 54l198 158l198 -158l-44 -54c-15 7 -31 14 -48 23c-29 15 -67 38 -106 67c-40 -29 -78 -52 -107 -67
c-17 -9 -33 -16 -47 -23z" />
    <glyph glyph-name="Udieresis" unicode="&#xdc;" horiz-adv-x="636" 
d="M60 677h119v-418c0 -124 56 -172 145 -172s132 64 132 172v418h120v-427c0 -139 -67 -256 -265 -256c-189 0 -251 117 -251 256v427zM219 875c39 0 61 -27 61 -63c0 -37 -21 -65 -64 -65c-39 0 -61 27 -61 62c0 39 21 66 64 66zM419 875c39 0 61 -27 61 -63
c0 -37 -21 -65 -64 -65c-39 0 -61 27 -61 62c0 39 21 66 64 66z" />
    <glyph glyph-name="Ugrave" unicode="&#xd9;" horiz-adv-x="636" 
d="M60 677h119v-418c0 -124 56 -172 145 -172s132 64 132 172v418h120v-427c0 -139 -67 -256 -265 -256c-189 0 -251 117 -251 256v427zM405 777l-29 -59c-31 9 -61 19 -91 32c-51 21 -113 54 -160 97l54 82z" />
    <glyph glyph-name="Yacute" unicode="&#xdd;" horiz-adv-x="544" 
d="M210 0v259l-210 418h130l142 -305l144 305h128l-214 -423v-254h-120zM215 718l-29 59l226 152l54 -82c-47 -43 -109 -76 -160 -97c-30 -13 -60 -23 -91 -32z" />
    <glyph glyph-name="Ydieresis" unicode="&#x178;" horiz-adv-x="544" 
d="M210 0v259l-210 418h130l142 -305l144 305h128l-214 -423v-254h-120zM173 875c39 0 61 -27 61 -63c0 -37 -21 -65 -64 -65c-39 0 -61 27 -61 62c0 39 21 66 64 66zM373 875c39 0 61 -27 61 -63c0 -37 -21 -65 -64 -65c-39 0 -61 27 -61 62c0 39 21 66 64 66z" />
    <glyph glyph-name="aacute" unicode="&#xe1;" horiz-adv-x="536" 
d="M467 477v-236c0 -80 12 -133 24 -166c7 -20 16 -36 25 -47l-91 -36c-8 9 -16 19 -23 31c-12 20 -25 51 -28 91c-23 -80 -70 -120 -155 -120c-125 0 -184 98 -184 248c0 152 98 264 239 264c40 0 87 -8 126 -15c22 -4 44 -9 67 -14zM238 75c65 0 114 98 114 196v143
c-13 3 -45 11 -65 11c-99 0 -128 -73 -128 -173c0 -92 7 -177 79 -177zM210 539l-49 52l170 190l77 -72c-40 -49 -89 -91 -129 -122c-23 -17 -46 -33 -69 -48z" />
    <glyph glyph-name="acircumflex" unicode="&#xe2;" horiz-adv-x="536" 
d="M467 477v-236c0 -80 12 -133 24 -166c7 -20 16 -36 25 -47l-91 -36c-8 9 -16 19 -23 31c-12 20 -25 51 -28 91c-23 -80 -70 -120 -155 -120c-125 0 -184 98 -184 248c0 152 98 264 239 264c40 0 87 -8 126 -15c22 -4 44 -9 67 -14zM238 75c65 0 114 98 114 196v143
c-13 3 -45 11 -65 11c-99 0 -128 -73 -128 -173c0 -92 7 -177 79 -177zM124 539l-44 54l188 188l188 -188l-44 -54c-13 7 -28 16 -44 27c-27 19 -63 44 -100 76c-39 -33 -74 -57 -101 -76c-16 -11 -30 -20 -43 -27z" />
    <glyph glyph-name="adieresis" unicode="&#xe4;" horiz-adv-x="536" 
d="M467 477v-236c0 -80 12 -133 24 -166c7 -20 16 -36 25 -47l-91 -36c-8 9 -16 19 -23 31c-12 20 -25 51 -28 91c-23 -80 -70 -120 -155 -120c-125 0 -184 98 -184 248c0 152 98 264 239 264c40 0 87 -8 126 -15c22 -4 44 -9 67 -14zM238 75c65 0 114 98 114 196v143
c-13 3 -45 11 -65 11c-99 0 -128 -73 -128 -173c0 -92 7 -177 79 -177zM169 715c39 0 61 -27 61 -63c0 -37 -21 -65 -64 -65c-39 0 -61 27 -61 62c0 39 21 66 64 66zM369 715c39 0 61 -27 61 -63c0 -37 -21 -65 -64 -65c-39 0 -61 27 -61 62c0 39 21 66 64 66z" />
    <glyph glyph-name="agrave" unicode="&#xe0;" horiz-adv-x="536" 
d="M467 477v-236c0 -80 12 -133 24 -166c7 -20 16 -36 25 -47l-91 -36c-8 9 -16 19 -23 31c-12 20 -25 51 -28 91c-23 -80 -70 -120 -155 -120c-125 0 -184 98 -184 248c0 152 98 264 239 264c40 0 87 -8 126 -15c22 -4 44 -9 67 -14zM238 75c65 0 114 98 114 196v143
c-13 3 -45 11 -65 11c-99 0 -128 -73 -128 -173c0 -92 7 -177 79 -177zM377 591l-49 -52c-23 15 -46 31 -69 48c-40 31 -90 73 -129 122l77 72z" />
    <glyph glyph-name="aring" unicode="&#xe5;" horiz-adv-x="536" 
d="M467 477v-236c0 -80 12 -133 24 -166c7 -20 16 -36 25 -47l-91 -36c-8 9 -16 19 -23 31c-12 20 -25 51 -28 91c-23 -80 -70 -120 -155 -120c-125 0 -184 98 -184 248c0 152 98 264 239 264c40 0 87 -8 126 -15c22 -4 44 -9 67 -14zM238 75c65 0 114 98 114 196v143
c-13 3 -45 11 -65 11c-99 0 -128 -73 -128 -173c0 -92 7 -177 79 -177zM168 646c0 59 42 101 101 101c57 0 98 -42 98 -101c0 -57 -42 -101 -101 -101c-57 0 -98 44 -98 101zM224 647c0 -31 16 -52 43 -52c28 0 44 19 44 51c0 31 -16 50 -44 50c-29 0 -43 -16 -43 -49z" />
    <glyph glyph-name="atilde" unicode="&#xe3;" horiz-adv-x="536" 
d="M467 477v-236c0 -80 12 -133 24 -166c7 -20 16 -36 25 -47l-91 -36c-8 9 -16 19 -23 31c-12 20 -25 51 -28 91c-23 -80 -70 -120 -155 -120c-125 0 -184 98 -184 248c0 152 98 264 239 264c40 0 87 -8 126 -15c22 -4 44 -9 67 -14zM238 75c65 0 114 98 114 196v143
c-13 3 -45 11 -65 11c-99 0 -128 -73 -128 -173c0 -92 7 -177 79 -177zM106 589v75c7 4 15 8 23 11c15 7 34 12 57 12c49 0 104 -20 153 -20c23 0 42 3 57 7c8 2 16 4 23 7v-75c-7 -5 -15 -9 -23 -12c-15 -7 -34 -11 -57 -11c-49 0 -104 20 -153 20c-23 0 -42 -4 -57 -7
c-8 -3 -16 -5 -23 -7z" />
    <glyph glyph-name="ccedilla" unicode="&#xe7;" horiz-adv-x="410" 
d="M400 442l-65 -62c-20 23 -38 41 -71 41c-41 0 -105 -14 -105 -169c0 -156 63 -176 110 -176c19 0 42 5 62 10c12 3 24 6 35 10l28 -73c-11 -6 -24 -11 -39 -15c-19 -6 -43 -11 -71 -14l-9 -41c52 -4 90 -30 90 -79c0 -72 -62 -93 -118 -93c-33 0 -64 7 -87 18l16 54
c15 -5 41 -13 64 -13c36 0 50 11 50 31c0 31 -53 44 -92 44l20 80c-129 14 -183 106 -183 242c0 176 100 273 229 273c63 0 105 -25 136 -68z" />
    <glyph glyph-name="eacute" unicode="&#xe9;" horiz-adv-x="473" 
d="M35 237c0 179 105 273 241 273c119 0 167 -62 167 -142c0 -97 -110 -177 -286 -180c8 -61 32 -112 110 -112c29 0 65 8 93 17c17 5 33 11 49 18l30 -72c-17 -9 -36 -16 -56 -23c-35 -12 -81 -23 -132 -23c-155 0 -216 97 -216 244zM267 431c-88 0 -110 -89 -113 -170
c125 3 174 61 174 107c0 39 -25 63 -61 63zM199 539l-49 52l170 190l77 -72c-40 -49 -89 -91 -129 -122c-23 -17 -46 -33 -69 -48z" />
    <glyph glyph-name="ecircumflex" unicode="&#xea;" horiz-adv-x="473" 
d="M35 237c0 179 105 273 241 273c119 0 167 -62 167 -142c0 -97 -110 -177 -286 -180c8 -61 32 -112 110 -112c29 0 65 8 93 17c17 5 33 11 49 18l30 -72c-17 -9 -36 -16 -56 -23c-35 -12 -81 -23 -132 -23c-155 0 -216 97 -216 244zM267 431c-88 0 -110 -89 -113 -170
c125 3 174 61 174 107c0 39 -25 63 -61 63zM113 539l-44 54l188 188l188 -188l-44 -54c-13 7 -28 16 -44 27c-27 19 -63 44 -100 76c-39 -33 -74 -57 -101 -76c-16 -11 -30 -20 -43 -27z" />
    <glyph glyph-name="edieresis" unicode="&#xeb;" horiz-adv-x="473" 
d="M35 237c0 179 105 273 241 273c119 0 167 -62 167 -142c0 -97 -110 -177 -286 -180c8 -61 32 -112 110 -112c29 0 65 8 93 17c17 5 33 11 49 18l30 -72c-17 -9 -36 -16 -56 -23c-35 -12 -81 -23 -132 -23c-155 0 -216 97 -216 244zM267 431c-88 0 -110 -89 -113 -170
c125 3 174 61 174 107c0 39 -25 63 -61 63zM158 715c39 0 61 -27 61 -63c0 -37 -21 -65 -64 -65c-39 0 -61 27 -61 62c0 39 21 66 64 66zM358 715c39 0 61 -27 61 -63c0 -37 -21 -65 -64 -65c-39 0 -61 27 -61 62c0 39 21 66 64 66z" />
    <glyph glyph-name="egrave" unicode="&#xe8;" horiz-adv-x="473" 
d="M35 237c0 179 105 273 241 273c119 0 167 -62 167 -142c0 -97 -110 -177 -286 -180c8 -61 32 -112 110 -112c29 0 65 8 93 17c17 5 33 11 49 18l30 -72c-17 -9 -36 -16 -56 -23c-35 -12 -81 -23 -132 -23c-155 0 -216 97 -216 244zM267 431c-88 0 -110 -89 -113 -170
c125 3 174 61 174 107c0 39 -25 63 -61 63zM366 591l-49 -52c-23 15 -46 31 -69 48c-40 31 -90 73 -129 122l77 72z" />
    <glyph glyph-name="iacute" unicode="&#xed;" horiz-adv-x="246" 
d="M159 -4c-71 0 -109 46 -109 113v389h115v-378c0 -31 9 -39 28 -39c5 0 12 0 17 1c3 0 6 0 9 1l12 -73c-5 -3 -11 -5 -18 -7c-12 -4 -30 -7 -54 -7zM79 539l-49 52l140 190l80 -68c-40 -49 -82 -93 -115 -124c-19 -18 -38 -35 -56 -50z" />
    <glyph glyph-name="icircumflex" unicode="&#xee;" horiz-adv-x="246" 
d="M159 -4c-71 0 -109 46 -109 113v389h115v-378c0 -31 9 -39 28 -39c5 0 12 0 17 1c3 0 6 0 9 1l12 -73c-5 -3 -11 -5 -18 -7c-12 -4 -30 -7 -54 -7zM-17 539l-47 51l171 191l171 -191l-47 -51l-36 27c-23 17 -53 42 -88 74c-35 -32 -65 -58 -88 -75
c-13 -10 -25 -19 -36 -26z" />
    <glyph glyph-name="idieresis" unicode="&#xef;" horiz-adv-x="246" 
d="M159 -4c-71 0 -109 46 -109 113v389h115v-378c0 -31 9 -39 28 -39c5 0 12 0 17 1c3 0 6 0 9 1l12 -73c-5 -3 -11 -5 -18 -7c-12 -4 -30 -7 -54 -7zM26 706c37 0 58 -25 58 -60s-21 -62 -61 -62c-37 0 -58 27 -58 59c0 36 21 63 61 63zM192 706c37 0 58 -25 58 -60
s-21 -62 -61 -62c-37 0 -58 27 -58 59c0 36 21 63 61 63z" />
    <glyph glyph-name="igrave" unicode="&#xec;" horiz-adv-x="246" 
d="M159 -4c-71 0 -109 46 -109 113v389h115v-378c0 -31 9 -39 28 -39c5 0 12 0 17 1c3 0 6 0 9 1l12 -73c-5 -3 -11 -5 -18 -7c-12 -4 -30 -7 -54 -7zM184 591l-49 -52c-18 15 -37 32 -56 50c-33 31 -76 75 -115 124l80 68z" />
    <glyph glyph-name="ntilde" unicode="&#xf1;" horiz-adv-x="549" 
d="M189 244v-244h-115v252c0 80 -13 133 -25 166c-7 19 -15 35 -24 47l91 36c7 -7 13 -16 20 -27c11 -19 22 -45 29 -80c35 79 106 112 178 112c45 0 79 -12 104 -37c28 -28 42 -73 42 -135v-334h-115v323c0 56 -18 92 -65 92c-59 0 -125 -66 -120 -171zM157 589v75
c7 4 15 8 23 11c15 7 34 12 57 12c49 0 104 -20 153 -20c23 0 42 3 57 7c8 2 16 4 23 7v-75c-7 -5 -15 -9 -23 -12c-15 -7 -34 -11 -57 -11c-49 0 -104 20 -153 20c-23 0 -42 -4 -57 -7c-8 -3 -16 -5 -23 -7z" />
    <glyph glyph-name="oacute" unicode="&#xf3;" horiz-adv-x="517" 
d="M263 510c153 0 219 -96 219 -255c0 -149 -75 -265 -228 -265s-219 97 -219 254c0 151 75 266 228 266zM253 425c-76 0 -94 -75 -94 -171c0 -99 20 -179 105 -179c76 0 94 74 94 170c0 100 -20 180 -105 180zM199 539l-49 52l170 190l77 -72c-40 -49 -89 -91 -129 -122
c-23 -17 -46 -33 -69 -48z" />
    <glyph glyph-name="ocircumflex" unicode="&#xf4;" horiz-adv-x="517" 
d="M263 510c153 0 219 -96 219 -255c0 -149 -75 -265 -228 -265s-219 97 -219 254c0 151 75 266 228 266zM253 425c-76 0 -94 -75 -94 -171c0 -99 20 -179 105 -179c76 0 94 74 94 170c0 100 -20 180 -105 180zM113 539l-44 54l188 188l188 -188l-44 -54
c-13 7 -28 16 -44 27c-27 19 -63 44 -100 76c-39 -33 -74 -57 -101 -76c-16 -11 -30 -20 -43 -27z" />
    <glyph glyph-name="odieresis" unicode="&#xf6;" horiz-adv-x="517" 
d="M263 510c153 0 219 -96 219 -255c0 -149 -75 -265 -228 -265s-219 97 -219 254c0 151 75 266 228 266zM253 425c-76 0 -94 -75 -94 -171c0 -99 20 -179 105 -179c76 0 94 74 94 170c0 100 -20 180 -105 180zM158 715c39 0 61 -27 61 -63c0 -37 -21 -65 -64 -65
c-39 0 -61 27 -61 62c0 39 21 66 64 66zM358 715c39 0 61 -27 61 -63c0 -37 -21 -65 -64 -65c-39 0 -61 27 -61 62c0 39 21 66 64 66z" />
    <glyph glyph-name="ograve" unicode="&#xf2;" horiz-adv-x="517" 
d="M263 510c153 0 219 -96 219 -255c0 -149 -75 -265 -228 -265s-219 97 -219 254c0 151 75 266 228 266zM253 425c-76 0 -94 -75 -94 -171c0 -99 20 -179 105 -179c76 0 94 74 94 170c0 100 -20 180 -105 180zM366 591l-49 -52c-23 15 -46 31 -69 48
c-40 31 -90 73 -129 122l77 72z" />
    <glyph glyph-name="otilde" unicode="&#xf5;" horiz-adv-x="517" 
d="M263 510c153 0 219 -96 219 -255c0 -149 -75 -265 -228 -265s-219 97 -219 254c0 151 75 266 228 266zM253 425c-76 0 -94 -75 -94 -171c0 -99 20 -179 105 -179c76 0 94 74 94 170c0 100 -20 180 -105 180zM95 589v75c7 4 15 8 23 11c15 7 34 12 57 12
c49 0 104 -20 153 -20c23 0 42 3 57 7c8 2 16 4 23 7v-75c-7 -5 -15 -9 -23 -12c-15 -7 -34 -11 -57 -11c-49 0 -104 20 -153 20c-23 0 -42 -4 -57 -7c-8 -3 -16 -5 -23 -7z" />
    <glyph glyph-name="uacute" unicode="&#xfa;" horiz-adv-x="549" 
d="M360 254v244h115v-257c0 -80 12 -133 24 -166c7 -20 16 -36 25 -47l-91 -36c-7 7 -14 17 -21 28c-11 19 -24 46 -29 82c-36 -77 -105 -108 -177 -108c-45 0 -79 12 -104 37c-28 28 -42 73 -42 135v332h115v-329c0 -56 18 -90 65 -90c59 0 125 70 120 175zM213 539l-49 52
l170 190l77 -72c-40 -49 -89 -91 -129 -122c-23 -17 -46 -33 -69 -48z" />
    <glyph glyph-name="ucircumflex" unicode="&#xfb;" horiz-adv-x="549" 
d="M360 254v244h115v-257c0 -80 12 -133 24 -166c7 -20 16 -36 25 -47l-91 -36c-7 7 -14 17 -21 28c-11 19 -24 46 -29 82c-36 -77 -105 -108 -177 -108c-45 0 -79 12 -104 37c-28 28 -42 73 -42 135v332h115v-329c0 -56 18 -90 65 -90c59 0 125 70 120 175zM127 539l-44 54
l188 188l188 -188l-44 -54c-13 7 -28 16 -44 27c-27 19 -63 44 -100 76c-39 -33 -74 -57 -101 -76c-16 -11 -30 -20 -43 -27z" />
    <glyph glyph-name="udieresis" unicode="&#xfc;" horiz-adv-x="549" 
d="M360 254v244h115v-257c0 -80 12 -133 24 -166c7 -20 16 -36 25 -47l-91 -36c-7 7 -14 17 -21 28c-11 19 -24 46 -29 82c-36 -77 -105 -108 -177 -108c-45 0 -79 12 -104 37c-28 28 -42 73 -42 135v332h115v-329c0 -56 18 -90 65 -90c59 0 125 70 120 175zM172 715
c39 0 61 -27 61 -63c0 -37 -21 -65 -64 -65c-39 0 -61 27 -61 62c0 39 21 66 64 66zM372 715c39 0 61 -27 61 -63c0 -37 -21 -65 -64 -65c-39 0 -61 27 -61 62c0 39 21 66 64 66z" />
    <glyph glyph-name="ugrave" unicode="&#xf9;" horiz-adv-x="549" 
d="M360 254v244h115v-257c0 -80 12 -133 24 -166c7 -20 16 -36 25 -47l-91 -36c-7 7 -14 17 -21 28c-11 19 -24 46 -29 82c-36 -77 -105 -108 -177 -108c-45 0 -79 12 -104 37c-28 28 -42 73 -42 135v332h115v-329c0 -56 18 -90 65 -90c59 0 125 70 120 175zM380 591
l-49 -52c-23 15 -46 31 -69 48c-40 31 -90 73 -129 122l77 72z" />
    <glyph glyph-name="yacute" unicode="&#xfd;" horiz-adv-x="538" 
d="M381 84l-3 8c-37 -71 -104 -98 -172 -98c-45 0 -79 12 -104 37c-28 28 -42 73 -42 135v332h115v-328c0 -56 18 -90 65 -90c51 0 111 55 119 140v278h118l-5 -295c-3 -79 31 -130 31 -210c0 -148 -90 -220 -226 -209c-43 3 -81 12 -110 23c-17 5 -33 11 -48 18l29 87
c55 -21 87 -33 130 -37c114 -11 140 94 103 209zM210 539l-49 52l170 190l77 -72c-40 -49 -89 -91 -129 -122c-23 -17 -46 -33 -69 -48z" />
    <glyph glyph-name="ydieresis" unicode="&#xff;" horiz-adv-x="538" 
d="M381 84l-3 8c-37 -71 -104 -98 -172 -98c-45 0 -79 12 -104 37c-28 28 -42 73 -42 135v332h115v-328c0 -56 18 -90 65 -90c51 0 111 55 119 140v278h118l-5 -295c-3 -79 31 -130 31 -210c0 -148 -90 -220 -226 -209c-43 3 -81 12 -110 23c-17 5 -33 11 -48 18l29 87
c55 -21 87 -33 130 -37c114 -11 140 94 103 209zM169 715c39 0 61 -27 61 -63c0 -37 -21 -65 -64 -65c-39 0 -61 27 -61 62c0 39 21 66 64 66zM369 715c39 0 61 -27 61 -63c0 -37 -21 -65 -64 -65c-39 0 -61 27 -61 62c0 39 21 66 64 66z" />
    <glyph glyph-name="uni00AD" unicode="&#xad;" horiz-adv-x="383" 
d="M50 277v84h283v-84h-283z" />
    <glyph glyph-name="uni00B2" unicode="&#xb2;" horiz-adv-x="317" 
d="M159 686c68 0 111 -29 111 -94c0 -52 -35 -97 -88 -152c-9 -9 -23 -21 -40 -33h135v-71h-241v71c8 6 16 13 24 20c15 12 31 28 50 47c48 53 68 78 68 109c0 23 -9 34 -27 34c-19 0 -40 -9 -56 -17c-9 -5 -19 -10 -28 -16l-32 63c39 21 77 39 124 39z" />
    <glyph glyph-name="uni00B3" unicode="&#xb3;" horiz-adv-x="328" 
d="M163 686c68 0 105 -34 105 -83c0 -39 -24 -60 -45 -73c39 -16 60 -47 60 -84c0 -59 -33 -117 -133 -117c-35 0 -78 14 -115 34l26 62l28 -14c16 -7 37 -13 58 -13c24 0 48 14 48 47c0 24 -12 43 -36 43c-17 0 -30 -2 -39 -3l-15 -3l-21 52c37 11 94 15 94 57
c0 15 -9 26 -24 26c-19 0 -40 -6 -81 -25l-30 64c41 19 75 30 120 30z" />
    <glyph glyph-name="uni00B9" unicode="&#xb9;" horiz-adv-x="267" 
d="M136 677h61v-341h-84v251c-21 -21 -44 -36 -68 -47l-35 64c15 5 30 12 45 19c25 12 56 31 81 54z" />
    <glyph glyph-name="uni00B5" unicode="&#xb5;" horiz-adv-x="554" 
d="M65 -222v720h115v-337c3 -51 35 -82 80 -82c53 0 100 56 105 144v275h115v-257c0 -80 12 -133 24 -166c7 -20 16 -36 25 -47l-91 -36c-7 7 -13 15 -19 24c-11 16 -22 39 -29 70c-25 -61 -68 -92 -130 -92c-30 0 -57 8 -80 24v-219z" />
    <glyph glyph-name="uni00A0" unicode="&#xa0;" horiz-adv-x="255" 
 />
    <glyph glyph-name="Euro" unicode="&#x20ac;" horiz-adv-x="556" 
d="M35 335v89h60c33 133 125 219 254 219c76 0 121 -33 152 -68l-58 -72c-31 32 -62 50 -105 50c-59 0 -100 -52 -119 -129h216l-15 -89h-213v-16c0 -16 -1 -30 2 -45h206l-15 -89h-173c23 -63 61 -101 120 -101c57 0 109 22 119 25l26 -83c-14 -6 -30 -11 -47 -16
c-31 -8 -72 -16 -119 -16c-112 0 -197 66 -230 191h-61v89h48c-1 11 -1 23 -1 35c0 9 0 17 1 26h-48z" />
  </font>
</defs>
</svg>
